<svg xmlns="http://www.w3.org/2000/svg" viewBox="0 0 660 560" role="img"><defs><linearGradient id="g" x1="0" x2="1"><stop stop-color="#9ddd78"/><stop offset="1" stop-color="#e7b859"/></linearGradient><filter id="s"><feDropShadow dx="0" dy="12" stdDeviation="14" flood-opacity=".2"/></filter></defs><g fill="none" stroke="#bfe99d" stroke-width="2" opacity=".55" stroke-dasharray="5 8"><path d="M70 370C150 210 230 190 330 255S500 275 590 120"/><path d="M110 120C220 175 290 105 385 150s110 125 188 144"/></g><g fill="#d8f3c5"><circle cx="70" cy="370" r="6"/><circle cx="330" cy="255" r="6"/><circle cx="590" cy="120" r="6"/><circle cx="110" cy="120" r="6"/><circle cx="385" cy="150" r="6"/></g><g filter="url(#s)"><circle cx="395" cy="245" r="146" fill="#0b5940" stroke="#80c865" stroke-width="3"/><ellipse cx="395" cy="245" rx="65" ry="146" stroke="#80c865"/><path d="M249 245h292M274 175h242M274 315h242" stroke="#80c865"/><path d="M350 116c28 18 42 39 38 62-34 4-61-7-80-34 6-15 20-24 42-28zM437 290c35-8 61 2 78 29-17 27-42 38-76 31-9-20-10-40-2-60z" fill="#9edb73" stroke="none"/></g><g transform="translate(70 266)" filter="url(#s)"><path d="M55 69c-9-47 16-81 57-81s65 33 56 81" fill="#e4a66b"/><path d="M38 77h148l-12 155H50z" fill="#f2f0dd"/><path d="M45 80c14 22 37 33 69 33s54-11 67-33" fill="#147052"/><circle cx="112" cy="39" r="38" fill="#a8633d"/><path d="M66 30c11-38 75-51 94-2-24 9-55 10-94 2" fill="#efe3bd"/><path d="M94 45h8m21 0h8" stroke="#2d211a" stroke-width="4" stroke-linecap="round"/><path d="M107 62c8 5 15 5 22 0" stroke="#2d211a" stroke-width="3"/><path d="M64 228c-8 38-28 62-60 70M164 228c8 38 28 62 60 70" stroke="#f2f0dd" stroke-width="26" stroke-linecap="round"/></g><g transform="translate(360 388)" filter="url(#s)"><rect width="238" height="94" rx="10" fill="#e3a841"/><path d="M20 22h198M20 44h198M20 66h198" stroke="#8c5a19" stroke-width="3"/><circle cx="53" cy="96" r="14" fill="#152f28"/><circle cx="188" cy="96" r="14" fill="#152f28"/></g><g transform="translate(485 72) rotate(-12)"><path d="M0 25l66-12L101 0l12 5-24 20 44-1 11 8-56 8-23 29-12-2 12-24-45 5z" fill="#f3eee1"/></g><g transform="translate(273 346)" filter="url(#s)"><path d="M0 24c28-22 49-20 67 6 17-26 39-28 67-6-13 39-35 59-67 59S13 63 0 24z" fill="url(#g)"/><path d="M67 30v53" stroke="#0d563e" stroke-width="5"/></g><text x="330" y="535" text-anchor="middle" fill="#d8f3c5" font-family="Arial" font-size="16" letter-spacing="4">FARM • AI • GLOBAL TRADE</text></svg>